{
  "accessors": [
    {
      "bufferView": 1,
      "componentType": 5126,
      "count": 10000,
      "max": [
        34.99992752075195,
        -96.81260681152344,
        10.000001907348633
      ],
      "min": [
        -35.00008010864258,
        -166.8123321533203,
        -10.000078201293945
      ],
      "type": "VEC3"
    },
    {
      "bufferView": 1,
      "byteOffset": 120000,
      "componentType": 5126,
      "count": 10000,
      "max": [
        1.0,
        1.0,
        0.9999999403953552
      ],
      "min": [
        -1.0,
        -1.0,
        -0.9999999403953552
      ],
      "type": "VEC3"
    },
    {
      "bufferView": 0,
      "componentType": 5125,
      "count": 60000,
      "type": "SCALAR"
    },
    {
      "bufferView": 1,
      "byteOffset": 240000,
      "componentType": 5126,
      "count": 560,
      "max": [
        22.639509201049805,
        -1.4999999621068127e-05,
        9.625436782836914
      ],
      "min": [
        -9.625215530395508,
        -104.62659454345703,
        -9.625280380249023
      ],
      "type": "VEC3"
    },
    {
      "bufferView": 1,
      "byteOffset": 246720,
      "componentType": 5126,
      "count": 560,
      "max": [
        1.0,
        1.0,
        1.0
      ],
      "min": [
        -1.0,
        -1.0,
        -1.0
      ],
      "type": "VEC3"
    },
    {
      "bufferView": 0,
      "byteOffset": 240000,
      "componentType": 5125,
      "count": 1560,
      "type": "SCALAR"
    }
  ],
  "asset": {
    "extras": {
      "author": "ruth182128 (https://sketchfab.com/ruth182128)",
      "license": "CC-BY-4.0 (http://creativecommons.org/licenses/by/4.0/)",
      "source": "https://sketchfab.com/3d-models/simple-gold-key-fc87b71b4385435dbb7c9056ee97e614",
      "title": "Simple Gold Key"
    },
    "generator": "Sketchfab-12.68.0",
    "version": "2.0"
  },
  "bufferViews": [
    {
      "buffer": 0,
      "byteLength": 246240,
      "name": "floatBufferViews",
      "target": 34963
    },
    {
      "buffer": 0,
      "byteLength": 253440,
      "byteOffset": 246240,
      "byteStride": 12,
      "name": "floatBufferViews",
      "target": 34962
    }
  ],
  "buffers": [
    {
      "byteLength": 499680,
      "uri": "scene.bin"
    }
  ],
  "materials": [
    {
      "doubleSided": true,
      "name": "Metallic_0",
      "pbrMetallicRoughness": {
        "baseColorFactor": [
          0.8193024440314856,
          0.6079986165399771,
          0.049770177665146416,
          1.0
        ],
        "roughnessFactor": 0.25650882537134656
      }
    }
  ],
  "meshes": [
    {
      "name": "Object_0",
      "primitives": [
        {
          "attributes": {
            "NORMAL": 1,
            "POSITION": 0
          },
          "indices": 2,
          "material": 0,
          "mode": 4
        }
      ]
    },
    {
      "name": "Object_1",
      "primitives": [
        {
          "attributes": {
            "NORMAL": 4,
            "POSITION": 3
          },
          "indices": 5,
          "material": 0,
          "mode": 4
        }
      ]
    }
  ],
  "nodes": [
    {
      "children": [
        1
      ],
      "matrix": [
        1.0,
        -1.608122622957729e-16,
        -1.6081226229577294e-16,
        0.0,
        -1.6081226229577292e-16,
        3.828568672208042e-16,
        -1.0,
        0.0,
        1.6081226229577292e-16,
        1.0,
        3.828568672208042e-16,
        0.0,
        -1.34127192859268e-14,
        1.34127192859268e-14,
        2.9782219548139643e-30,
        1.0
      ],
      "name": "Sketchfab_model"
    },
    {
      "children": [
        2,
        3
      ],
      "name": "gold_key.obj.cleaner.materialmerger.gles"
    },
    {
      "mesh": 0,
      "name": "Object_2"
    },
    {
      "mesh": 1,
      "name": "Object_3"
    }
  ],
  "scene": 0,
  "scenes": [
    {
      "name": "Sketchfab_Scene",
      "nodes": [
        0
      ]
    }
  ]
}
